<svg xmlns="http://www.w3.org/2000/svg" viewBox="0 0 423.64 109.41"><defs><style>.cls-1,.cls-2{fill:#fff;}.cls-2{font-size:53.74px;font-family:Calistoga-Regular, Calistoga;}.cls-3{letter-spacing:-0.05em;}.cls-4{letter-spacing:-0.01em;}</style></defs><g id="Capa_2" data-name="Capa 2"><g id="Capa_1-2" data-name="Capa 1"><g id="CUSTOM-group"><g id="CUSTOM-group-2" data-name="CUSTOM-group"><path class="cls-1" d="M92.87,15.52A54.7,54.7,0,1,0,16.53,93.89a54.71,54.71,0,0,0,77.36-1,54.7,54.7,0,0,0-1-77.35ZM91.35,90.4A51.16,51.16,0,1,1,18.06,19,51.16,51.16,0,1,1,91.35,90.4Z"/><path class="cls-1" d="M54.08,7.57a47.14,47.14,0,1,0,47.76,46.51A47.18,47.18,0,0,0,54.08,7.57Zm3,90.67L57,90.6a1.78,1.78,0,0,0-3.55,0l.1,7.64A43.65,43.65,0,0,1,11.17,57.05l7.64-.1a1.78,1.78,0,0,0,0-3.55l-7.64.1A43.65,43.65,0,0,1,52.36,11.17l.1,7.64a1.77,1.77,0,1,0,3.54,0l-.1-7.64A43.65,43.65,0,0,1,98.24,52.36l-7.64.1a1.77,1.77,0,1,0,0,3.54l7.64-.1A43.65,43.65,0,0,1,57.05,98.24Z"/><path class="cls-1" d="M78.21,28.2,44.39,43.77a1.76,1.76,0,0,0-.89.91L28.82,78.9a1.78,1.78,0,0,0,1.66,2.47,1.63,1.63,0,0,0,.71-.16L65,65.64a1.76,1.76,0,0,0,.89-.91L80.58,30.51a1.77,1.77,0,0,0-2.37-2.31ZM45.74,48.45l2.55,2.48a7.37,7.37,0,0,0-1,3.87,7.46,7.46,0,0,0,7.54,7.35A7.38,7.38,0,0,0,58.64,61l2.55,2.48L33.9,76.06Zm9,10.15a3.9,3.9,0,1,1,3.84-4A3.9,3.9,0,0,1,54.76,58.6ZM63.67,61l-2.55-2.48A7.44,7.44,0,0,0,50.76,48.39l-2.55-2.48,27.3-12.57L63.67,61Z"/></g></g><text class="cls-2" transform="translate(128.19 70.22)"><tspan class="cls-3">V</tspan><tspan x="30.9" y="0">oyageCr</tspan><tspan class="cls-4" x="227.79" y="0">a</tspan><tspan x="255.85" y="0">ft</tspan></text></g></g></svg>